<svg version="1.1" xmlns="http://www.w3.org/2000/svg" xmlns:xlink="http://www.w3.org/1999/xlink" x="0px" y="0px" viewBox="0 0 155.9 43.5" style="enable-background:new 0 0 155.9 43.5;" xml:space="preserve">
	<style type="text/css">
		.st0{fill-rule:evenodd;clip-rule:evenodd;fill:#010101;}
	</style>
	<g>
		<polygon points="82.3,19.2 81.4,18.8 80.5,18.4 79.7,18.1 78.8,17.7 77.9,17.4 77.1,17 76.3,16.6 75.5,16.3 73.4,15.3
			71.3,14.5 69.1,13.5 66.8,12.6 64.6,11.6 62.3,10.8 59.9,9.8 57.5,9 55.2,8.2 52.9,7.4 50.5,6.7 48.1,6 45.8,5.4 43.5,4.8
			41.3,4.3 39,3.9 36.9,3.6 34.8,3.4 32.8,3.3 30.8,3.2 29,3.3 27.2,3.5 25.6,3.8 24,4.2 22.6,4.8 21.3,5.5 20.1,6.4 19.1,7.4
			18.2,8.6 17.5,10 17,11.5 16.6,13.2 16.5,15 16.6,16.8 17,18.4 17.6,19.9 18.3,21.3 19.2,22.5 20.2,23.6 21.4,24.7 22,25.2
			22.6,25.6 23.2,26 23.8,26.5 24.5,26.9 25.2,27.2 25.9,27.5 26.7,27.8 27.8,28.3 28.9,28.7 30.1,28.9 31.3,29.1 32.6,29.1
			33.8,29.1 35,29 36.1,28.7 37.1,28.3 38,27.8 38.7,27.3 39.3,26.6 39.7,25.9 39.8,25 39.7,24.1 39.3,23.1 38,23.1 37.1,22.9
			36.6,22.4 36.4,21.8 36.4,21 36.7,20.3 37.2,19.7 37.7,19.4 38.3,19.1 39,19 39.8,19.2 40.5,19.5 41.1,20 41.6,20.8 41.9,21.8
			41.9,23.1 41.8,23.9 41.6,24.8 41.3,25.7 41,26.5 40.5,27.2 40,27.9 39.5,28.6 38.7,29.1 37.9,29.6 36.9,30 35.9,30.3 34.7,30.4
			33.3,30.5 31.9,30.4 30.3,30.2 28.5,29.8 26.4,29.1 24.4,28.1 22.5,27 20.7,25.5 19,24 17.6,22.2 16.3,20.4 15.4,18.4 14.7,16.4
			14.3,14.5 14.3,12.4 14.7,10.5 15.5,8.5 16.7,6.8 18.4,5.1 20.7,3.6 22.1,2.9 23.6,2.2 25.1,1.7 26.6,1.2 28.2,0.8 29.8,0.5
			31.5,0.3 33.2,0.1 35,0 36.8,0 38.6,0.1 40.5,0.3 42.4,0.5 44.4,0.7 46.5,1.1 48.5,1.5 50.6,2 52.7,2.5 55,3.1 57.2,3.8 59.4,4.5
			61.8,5.2 64.2,6 66.5,6.9 69,7.8 71.5,8.7 74,9.8 76.6,10.8 79.3,11.9 82,12.9 84.7,14.1 87.4,15.3 82.3,19.2 	"/>
		<polygon points="82.3,19.2 84.2,20 86.1,20.7 88.2,21.4 90.1,22.1 92.1,22.8 94.1,23.5 96.1,24.1 98,24.7 100,25.2
			101.9,25.7 103.9,26.2 105.7,26.7 107.6,27 109.4,27.4 111.2,27.7 113,27.9 114.7,28.1 116.4,28.3 118,28.3 119.6,28.3 121.1,28.3
			122.7,28.2 124,28 125.4,27.8 126.7,27.4 127.9,27 129,26.6 130.1,26 131,25.5 131.9,24.7 132.7,23.9 133.4,23.1 135,20
			135.8,17.1 135.6,14.4 134.8,11.9 133.5,9.7 131.9,7.8 130.1,6.2 128.3,5.1 125.7,3.8 123,2.8 120.3,2.2 117.5,1.8 114.8,1.7
			112,1.8 109.1,2.1 106.3,2.7 103.4,3.4 100.5,4.3 97.7,5.4 94.7,6.7 91.8,8 88.9,9.4 86.1,11 83.3,12.6 82.1,13.2 81,14 79.7,14.7
			78.5,15.4 77.2,16.2 75.9,16.9 74.6,17.7 73.3,18.5 72,19.3 70.6,20.1 69.1,21 67.7,21.8 66.3,22.6 64.8,23.4 63.4,24.2 61.9,24.9
			63.9,25.7 66.4,24.3 69,22.8 71.6,21.5 74.2,20.1 76.8,18.7 79.4,17.4 82.1,16.1 84.7,14.8 87.4,13.5 90,12.3 92.5,11.2 95.1,10.1
			97.7,9.1 100.2,8.2 102.6,7.4 105.1,6.6 107.5,5.9 109.8,5.4 112,5 114.2,4.7 116.2,4.5 118.3,4.5 120.2,4.6 122.1,4.8 123.8,5.2
			125.5,5.8 127,6.5 128.4,7.4 129.7,8.5 130.9,9.8 131.9,11.4 132.8,13 133.6,15.3 133.7,17.3 133.2,19 132.1,20.5 130.5,21.7
			128.6,22.7 126.3,23.4 123.8,24 121,24.3 118.1,24.4 115.2,24.4 112.3,24.2 109.4,23.8 106.7,23.2 104.1,22.5 101.8,21.6
			100.9,21.2 100,20.8 99,20.4 98.2,20 97.2,19.5 96.3,19.2 95.4,18.7 94.5,18.4 93.6,17.9 92.7,17.6 91.8,17.2 91,16.8 90,16.4
			89.2,16.1 88.3,15.6 87.4,15.3 82.3,19.2 	"/>
		<polygon points="61.9,24.9 59.6,26.1 57.3,27.3 55,28.3 52.6,29.4 50.2,30.4 47.8,31.4 45.4,32.2 42.9,33 40.5,33.8
			38,34.5 35.6,35.1 33.1,35.5 30.7,35.9 28.2,36.2 25.8,36.3 23.4,36.3 21.4,36.2 19.4,36 17.4,35.8 15.5,35.4 13.5,35.1 11.7,34.5
			10,33.9 8.4,33.2 6.9,32.3 5.6,31.4 4.5,30.4 3.5,29.1 2.7,27.8 2.2,26.4 1.9,24.8 1.9,23.1 2.1,21.6 2.6,20.2 3.3,18.9 4.2,17.8
			5.3,16.7 6.6,15.7 8,14.8 9.6,14.1 11.2,13.4 13,12.9 14.7,12.4 16.5,12.1 18.4,11.9 20.2,11.9 22,11.9 23.7,12.1 25.9,12.4
			27.9,12.7 30,13.1 32.1,13.5 34.1,14 36.1,14.4 38,14.9 40,15.4 41.8,16 43.7,16.6 45.6,17.1 47.4,17.7 49.3,18.4 51.1,18.9
			52.9,19.7 54.7,20.3 56.5,21 58.2,21.7 60,22.4 61.8,23.1 63.6,23.9 65.4,24.7 67.2,25.4 69,26.2 70.8,26.9 72.6,27.7 74.5,28.5
			76.3,29.3 78.2,30.1 80.2,30.8 82.1,31.6 84.1,32.4 84.8,32.7 85.4,32.9 86.1,33.2 86.9,33.5 87.6,33.7 88.3,34 89.1,34.2
			89.8,34.4 90.6,34.7 91.3,34.9 92.1,35.1 92.9,35.4 93.7,35.6 94.5,35.9 95.3,36.1 96.1,36.3 98.6,32 97.7,31.7 96.8,31.4 95.9,31
			95.1,30.7 94.2,30.4 93.3,30.1 92.5,29.7 91.8,29.4 89,28.2 86.2,27 83.2,25.7 80.2,24.4 76.9,23.1 73.7,21.8 70.3,20.5 66.9,19.3
			63.5,18.1 60,16.8 56.5,15.7 52.9,14.6 49.4,13.6 46,12.7 42.5,11.9 39,11.1 35.7,10.5 32.3,10 29.2,9.6 26.1,9.4 23,9.3 20.2,9.4
			17.4,9.7 14.8,10.1 12.3,10.8 10.1,11.6 8,12.7 6.1,14 4.4,15.5 3,17.3 1.7,19.3 0.8,21.6 0.3,23.4 0,25.2 0,26.8 0.2,28.3
			0.6,29.7 1.3,30.9 2.2,32.2 3.2,33.2 4.5,34.1 5.9,35 7.5,35.7 9.2,36.4 11.1,36.9 13.1,37.3 15.3,37.6 17.5,37.8 19.8,38 22.3,38
			24.8,37.9 27.4,37.7 30,37.4 32.7,37 35.4,36.5 38.2,35.9 41,35.2 43.8,34.4 46.6,33.6 49.3,32.6 52.1,31.5 54.8,30.4 57.5,29.1
			60.1,27.8 60.6,27.5 61.1,27.3 61.5,27 62,26.8 62.5,26.5 62.9,26.2 63.5,26 63.9,25.7 61.9,24.9 	"/>
		<polygon points="96.1,36.3 98,36.8 100,37.3 102,37.7 104,38.2 106,38.6 108.1,39 110.2,39.3 112.2,39.6 114.3,39.9
			116.4,40.1 118.4,40.3 120.5,40.5 122.5,40.6 124.5,40.7 126.5,40.8 128.5,40.8 130.4,40.7 132.3,40.6 134.2,40.5 136,40.3
			137.8,40.1 139.5,39.8 141.2,39.4 142.7,39 144.3,38.5 145.8,38 147.1,37.5 148.4,36.8 149.7,36.1 150.8,35.3 151.9,34.5
			152.8,33.6 153.8,32.3 154.7,31 155.3,29.6 155.7,28.2 155.9,26.7 155.8,25.2 155.6,23.7 155.1,22.3 154.4,20.9 153.5,19.6
			152.4,18.4 151.1,17.3 149.6,16.3 147.9,15.5 146,14.9 143.8,14.5 140.8,14.1 137.9,13.9 135,13.9 132.3,14 129.6,14.2 127,14.5
			124.5,15 121.9,15.5 119.6,16.3 117.2,17 114.9,17.9 112.6,18.7 110.4,19.7 108.3,20.7 106.2,21.7 104.1,22.8 103,23.4 101.8,24
			100.6,24.7 99.2,25.5 97.8,26.2 96.4,27 94.8,27.9 93.1,28.8 91.5,29.7 89.7,30.6 87.9,31.5 86,32.4 84.1,33.3 82.1,34.2
			80.1,35.1 78.1,35.9 76,36.7 73.8,37.5 71.7,38.3 69.5,38.9 67.3,39.5 65,40.1 62.8,40.5 60.6,40.9 58.3,41.2 56,41.4 53.8,41.5
			51.5,41.5 49.3,41.4 47,41.1 44.8,40.9 42.6,40.3 42,39.4 41.4,38.7 40.8,38.2 40.1,37.8 39.5,37.7 39,37.7 38.5,38 38,38.4
			37.7,38.9 37.7,39.5 37.9,40.1 38.2,40.6 38.6,41.2 39.1,41.7 39.7,42 40.2,42.3 41.1,42.6 42.2,42.9 43.3,43.1 44.5,43.2
			45.7,43.4 47.1,43.5 48.5,43.5 49.9,43.5 51.4,43.4 53,43.2 54.6,43.1 56.3,42.9 58,42.6 59.8,42.2 61.6,41.9 63.5,41.4 65.3,41
			67.3,40.5 69.2,39.9 71.2,39.3 73.2,38.7 75.3,38 77.4,37.2 79.4,36.4 81.5,35.6 83.6,34.6 85.8,33.7 87.9,32.7 90,31.7 92.2,30.6
			94.4,29.4 96.5,28.3 98.7,27.1 100.9,26 103.2,24.9 105.5,23.9 107.9,22.9 110.3,22.1 112.6,21.2 115,20.5 117.4,19.7 119.8,19.2
			122.2,18.6 124.5,18.1 126.8,17.7 129,17.4 131.2,17.1 133.3,16.9 135.4,16.8 137.4,16.8 139.4,16.8 141.2,17 143,17.3 144.6,17.6
			146.1,18 147.6,18.5 148.9,19.1 150,19.7 151,20.5 151.9,21.4 152.6,22.4 153.1,23.5 153.5,24.7 153.7,26 153.7,27 153.5,28.1
			153.1,29.1 152.5,30 151.8,30.9 150.9,31.7 149.8,32.4 148.7,33.1 147.3,33.7 145.8,34.3 144.3,34.7 142.6,35.1 140.8,35.5
			138.9,35.8 136.9,36.1 134.9,36.2 132.7,36.4 130.6,36.4 128.3,36.5 126.1,36.4 123.8,36.4 121.4,36.2 119.1,36 116.7,35.8
			114.4,35.5 112.1,35.1 109.7,34.7 107.4,34.3 105.2,33.8 102.9,33.2 100.7,32.6 98.6,32 96.1,36.3 	"/>
	</g>
</svg>
